# This file uses centimeters as units for non-parametric coordinates.

mtllib Circle Thing.mtl
g default
v 2.822519 -0.654444 -0.917092
v 2.400979 -0.654444 -1.744413
v 2.400979 0.654444 -1.744413
v 2.822519 0.654444 -0.917092
v 2.967771 -0.654444 0.000000
v 2.967771 0.654444 0.000000
v 2.630419 -0.654444 -0.854675
v 2.630419 -0.654444 -0.854675
v 2.237568 -0.654444 -1.625688
v 1.744413 -0.654444 -2.400978
v 1.744413 0.654444 -2.400978
v 2.237568 0.654444 -1.625688
v 2.630419 0.654444 -0.854675
v 2.630419 0.654444 -0.854675
v 2.822518 -0.654444 0.917092
v 2.822518 0.654444 0.917092
v 2.765784 -0.654444 0.000000
v 2.765784 0.654444 0.000000
v 2.237568 -0.654444 -1.625688
v 1.625688 -0.654444 -2.237568
v 1.625688 -0.654444 -2.237568
v 0.917092 -0.654444 -2.822519
v 0.917092 0.654444 -2.822519
v 1.625688 0.654444 -2.237568
v 1.625688 0.654444 -2.237568
v 2.237568 0.654444 -1.625688
v 2.400977 -0.654444 1.744412
v 2.400977 0.654444 1.744412
v 2.630417 -0.654444 0.854674
v 2.630417 0.654444 0.854674
v 0.854675 -0.654444 -2.630419
v 0.000000 -0.654444 -2.967772
v 0.000000 0.654444 -2.967772
v 0.854675 0.654444 -2.630419
v 1.744412 -0.654444 2.400977
v 1.744412 0.654444 2.400977
v 2.237566 -0.654444 1.625687
v 2.630417 -0.654444 0.854674
v 2.630417 0.654444 0.854674
v 2.237566 0.654444 1.625687
v 0.854675 -0.654444 -2.630419
v 0.000000 -0.654444 -2.765786
v -0.917092 -0.654444 -2.822519
v -0.917092 0.654444 -2.822519
v 0.000000 0.654444 -2.765786
v 0.854675 0.654444 -2.630419
v 0.917091 -0.654444 2.822518
v 0.917091 0.654444 2.822518
v 1.625687 -0.654444 2.237567
v 1.625687 -0.654444 2.237567
v 2.237566 -0.654444 1.625687
v 2.237566 0.654444 1.625687
v 1.625687 0.654444 2.237567
v 1.625687 0.654444 2.237567
v -0.854675 -0.654444 -2.630418
v -0.854675 -0.654444 -2.630418
v -1.744412 -0.654444 -2.400978
v -1.744412 0.654444 -2.400978
v -0.854675 0.654444 -2.630418
v -0.854675 0.654444 -2.630418
v -0.000000 -0.654444 2.967771
v -0.000000 0.654444 2.967771
v 0.854674 -0.654444 2.630417
v 0.854674 -0.654444 2.630417
v 0.854674 0.654444 2.630417
v 0.854674 0.654444 2.630417
v -1.625688 -0.654444 -2.237567
v -2.400978 -0.654444 -1.744412
v -2.400978 0.654444 -1.744412
v -1.625688 0.654444 -2.237567
v -0.917092 -0.654444 2.822518
v -0.917092 0.654444 2.822518
v -0.000000 -0.654444 2.765785
v -0.000000 0.654444 2.765785
v -1.625688 -0.654444 -2.237567
v -2.237567 -0.654444 -1.625688
v -2.237567 -0.654444 -1.625688
v -2.822518 -0.654444 -0.917092
v -2.822518 0.654444 -0.917092
v -2.237567 0.654444 -1.625688
v -2.237567 0.654444 -1.625688
v -1.625688 0.654444 -2.237567
v -1.744412 -0.654444 2.400977
v -1.744412 0.654444 2.400977
v -0.854675 -0.654444 2.630418
v -0.854675 -0.654444 2.630418
v -0.854675 0.654444 2.630418
v -0.854675 0.654444 2.630418
v -2.630418 -0.654444 -0.854675
v -2.630418 -0.654444 -0.854675
v -2.967771 -0.654444 0.000000
v -2.967771 0.654444 0.000000
v -2.630418 0.654444 -0.854675
v -2.630418 0.654444 -0.854675
v -2.400977 -0.654444 1.744412
v -2.400977 0.654444 1.744412
v -1.625687 -0.654444 2.237567
v -1.625687 0.654444 2.237567
v -2.765785 -0.654444 0.000000
v -2.822518 -0.654444 0.917092
v -2.822518 0.654444 0.917092
v -2.765785 0.654444 0.000000
v -2.237567 -0.654444 1.625687
v -2.237567 -0.654444 1.625687
v -1.625687 -0.654444 2.237567
v -1.625687 0.654444 2.237567
v -2.237567 0.654444 1.625687
v -2.237567 0.654444 1.625687
v -2.630418 -0.654444 0.854675
v -2.630418 0.654444 0.854675
v -2.630418 -0.654444 0.854675
v -2.630418 0.654444 0.854675
vt -0.229031 0.422484
vt -0.183319 0.422484
vt -0.183319 0.487271
vt -0.229031 0.487271
vt -0.274743 0.422484
vt -0.274743 0.487271
vt -0.293506 0.547156
vt -0.282017 0.569705
vt -0.287253 0.571186
vt -0.287253 0.571186
vt -0.297960 0.550172
vt -0.137608 0.422484
vt -0.137608 0.487271
vt -0.570268 0.612557
vt -0.581757 0.635106
vt -0.586210 0.631650
vt -0.575503 0.610636
vt -0.575503 0.610636
vt -0.320454 0.422484
vt -0.320454 0.487271
vt -0.278058 0.594700
vt -0.283563 0.594480
vt -0.571814 0.587342
vt -0.566309 0.587562
vt -0.311401 0.529262
vt -0.297960 0.550172
vt -0.314637 0.533495
vt -0.314637 0.533495
vt -0.091896 0.422484
vt -0.091896 0.487271
vt -0.599651 0.653000
vt -0.602887 0.648326
vt -0.602887 0.648326
vt -0.586210 0.631650
vt -0.366166 0.422484
vt -0.366166 0.487271
vt -0.282017 0.619696
vt -0.287253 0.617774
vt -0.575503 0.564047
vt -0.570268 0.562566
vt -0.335651 0.522788
vt -0.333950 0.517773
vt -0.046184 0.422484
vt -0.960418 0.487271
vt -0.622200 0.664490
vt -0.623901 0.659034
vt -0.411878 0.422484
vt -0.411878 0.487271
vt -0.293506 0.642244
vt -0.297960 0.638788
vt -0.287253 0.617774
vt -0.581757 0.540018
vt -0.575503 0.564047
vt -0.586210 0.543033
vt -0.358945 0.513814
vt -0.335651 0.522788
vt -0.358945 0.519099
vt -0.914707 0.422484
vt -0.914707 0.487271
vt -0.647195 0.668448
vt -0.647195 0.662723
vt -0.623901 0.659034
vt -0.457590 0.422484
vt -0.457590 0.487271
vt -0.311401 0.660139
vt -0.314637 0.655465
vt -0.314637 0.655465
vt -0.297960 0.638788
vt -0.599651 0.522123
vt -0.586210 0.543033
vt -0.602887 0.526357
vt -0.602887 0.526357
vt -0.383940 0.517773
vt -0.382239 0.522788
vt -0.382239 0.522788
vt -0.868995 0.422484
vt -0.868995 0.487271
vt -0.672191 0.664490
vt -0.670490 0.659034
vt -0.670490 0.659034
vt -0.503301 0.422484
vt -0.503301 0.487271
vt -0.333950 0.671628
vt -0.335651 0.666172
vt -0.335651 0.666172
vt -0.622200 0.510634
vt -0.623901 0.515649
vt -0.623901 0.515649
vt -0.403253 0.533495
vt -0.406489 0.529262
vt -0.823283 0.422484
vt -0.823283 0.487271
vt -0.694739 0.653000
vt -0.691504 0.648326
vt -0.549013 0.422484
vt -0.549013 0.487271
vt -0.358945 0.675587
vt -0.358945 0.669862
vt -0.647195 0.511960
vt -0.647195 0.506675
vt -0.424384 0.547156
vt -0.403253 0.533495
vt -0.419930 0.550172
vt -0.419930 0.550172
vt -0.777572 0.422484
vt -0.777572 0.487271
vt -0.712634 0.635106
vt -0.708180 0.631650
vt -0.708180 0.631650
vt -0.691504 0.648326
vt -0.594725 0.422484
vt -0.594725 0.487271
vt -0.383940 0.671628
vt -0.382239 0.666172
vt -0.382239 0.666172
vt -0.672191 0.510634
vt -0.670490 0.515649
vt -0.670490 0.515649
vt -0.435873 0.569705
vt -0.430637 0.571186
vt -0.430637 0.571186
vt -0.731860 0.422484
vt -0.731860 0.487271
vt -0.724123 0.612557
vt -0.718887 0.610636
vt -0.718887 0.610636
vt -0.640437 0.422484
vt -0.640437 0.487271
vt -0.406489 0.660139
vt -0.403253 0.655465
vt -0.691504 0.526357
vt -0.694739 0.522123
vt -0.434326 0.594480
vt -0.439832 0.594700
vt -0.686148 0.422484
vt -0.686148 0.487271
vt -0.728082 0.587562
vt -0.722577 0.587342
vt -0.424384 0.642244
vt -0.419930 0.638788
vt -0.419930 0.638788
vt -0.403253 0.655465
vt -0.712634 0.540018
vt -0.691504 0.526357
vt -0.708180 0.543033
vt -0.708180 0.543033
vt -0.430637 0.617774
vt -0.435873 0.619696
vt -0.724123 0.562566
vt -0.718887 0.564047
vt -0.430637 0.617774
vt -0.718887 0.564047
vt -0.446434 0.371022
vt -0.446434 0.371022
vt -0.421083 0.371022
vt -0.421083 0.413422
vt -0.446434 0.413422
vt -0.446434 0.413422
vt -0.471786 0.371022
vt -0.471786 0.413422
vt -0.421083 0.371022
vt -0.395731 0.371022
vt -0.395731 0.413422
vt -0.421083 0.413422
vt -0.497137 0.371022
vt -0.497137 0.371022
vt -0.471786 0.371022
vt -0.471786 0.413422
vt -0.497137 0.413422
vt -0.497137 0.413422
vt -0.370380 0.371023
vt -0.370380 0.371023
vt -0.370380 0.413422
vt -0.370380 0.413422
vt -0.522489 0.371022
vt -0.522489 0.413422
vt -0.345028 0.371023
vt -0.345028 0.371023
vt -0.345028 0.413422
vt -0.345028 0.413422
vt -0.547840 0.371022
vt -0.547840 0.413422
vt -0.319677 0.371023
vt -0.319677 0.413423
vt -0.573191 0.371022
vt -0.573191 0.371022
vt -0.547840 0.371022
vt -0.547840 0.413422
vt -0.573191 0.413422
vt -0.573191 0.413422
vt -0.319677 0.371023
vt -0.294325 0.371023
vt -0.294325 0.413423
vt -0.319677 0.413423
vt -0.598543 0.371022
vt -0.598543 0.413422
vt -0.294325 0.371023
vt -0.776003 0.371022
vt -0.268974 0.413423
vt -0.294325 0.413423
vt -0.623894 0.371022
vt -0.598543 0.371022
vt -0.598543 0.413422
vt -0.623894 0.413422
vt -0.750652 0.371022
vt -0.750652 0.413422
vt -0.649246 0.371022
vt -0.623894 0.371022
vt -0.623894 0.413422
vt -0.649246 0.413422
vt -0.750652 0.371022
vt -0.725300 0.371022
vt -0.725300 0.371022
vt -0.725300 0.413422
vt -0.725300 0.413422
vt -0.750652 0.413422
vt -0.674597 0.371022
vt -0.674597 0.371022
vt -0.674597 0.413422
vt -0.674597 0.413422
vt -0.699949 0.371022
vt -0.699949 0.413422
vt -0.699949 0.371022
vt -0.699949 0.413422
vt -0.960418 0.422484
vt -0.046184 0.487271
vt -0.268974 0.371023
vt -0.776003 0.413422
vn 0.951057 0.000000 -0.309016
vn 0.809017 0.000000 -0.587785
vn 0.809017 0.000000 -0.587785
vn 0.951057 0.000000 -0.309016
vn 1.000000 0.000000 0.000001
vn 1.000000 0.000000 0.000001
vn 0.000000 -1.000000 0.000000
vn 0.000000 -1.000000 0.000000
vn 0.000000 -1.000000 -0.000000
vn 0.000000 -1.000000 0.000000
vn 0.000000 -1.000000 0.000000
vn 0.587785 0.000000 -0.809017
vn 0.587785 0.000000 -0.809017
vn 0.000000 1.000000 0.000000
vn 0.000000 1.000000 0.000000
vn 0.000000 1.000000 0.000000
vn 0.000000 1.000000 0.000000
vn 0.000000 1.000000 0.000000
vn 0.951057 0.000000 0.309017
vn 0.951057 0.000000 0.309017
vn 0.000000 -1.000000 -0.000000
vn 0.000000 -1.000000 -0.000000
vn 0.000000 1.000000 0.000000
vn 0.000000 1.000000 0.000000
vn 0.000000 -1.000000 0.000000
vn 0.000000 -1.000000 0.000000
vn 0.000000 -0.000000 0.000000
vn 0.000000 -1.000000 0.000000
vn 0.309017 0.000000 -0.951057
vn 0.309017 0.000000 -0.951057
vn 0.000000 1.000000 0.000000
vn 0.000000 1.000000 0.000000
vn 0.000000 0.000000 0.000000
vn 0.000000 1.000000 0.000000
vn 0.809017 0.000000 0.587785
vn 0.809017 0.000000 0.587785
vn 0.000000 -1.000000 0.000000
vn 0.000000 -1.000000 0.000000
vn 0.000000 1.000000 0.000000
vn 0.000000 1.000000 0.000000
vn 0.000000 -1.000000 0.000000
vn 0.000000 -1.000000 0.000000
vn -0.000000 0.000000 -1.000000
vn -0.000000 0.000000 -1.000000
vn 0.000000 1.000000 0.000000
vn 0.000000 1.000000 0.000000
vn 0.587785 0.000000 0.809017
vn 0.587785 0.000000 0.809017
vn 0.000000 -1.000000 0.000000
vn 0.000000 -1.000000 0.000000
vn 0.000000 -1.000000 0.000000
vn 0.000000 1.000000 0.000000
vn 0.000000 1.000000 0.000000
vn 0.000000 1.000000 0.000000
vn 0.000000 -1.000000 0.000000
vn 0.000000 -0.000000 0.000000
vn 0.000000 -1.000000 0.000000
vn -0.309017 0.000000 -0.951057
vn -0.309017 0.000000 -0.951057
vn 0.000000 1.000000 0.000000
vn 0.000000 1.000000 0.000000
vn 0.000000 0.000000 0.000000
vn 0.309017 0.000000 0.951057
vn 0.309017 0.000000 0.951057
vn 0.000000 -1.000000 0.000000
vn 0.000000 -1.000000 0.000000
vn 0.000000 -0.000000 0.000000
vn 0.000000 -0.000000 0.000000
vn 0.000000 1.000000 -0.000000
vn 0.000000 0.000000 0.000000
vn 0.000000 0.000000 0.000000
vn 0.000000 1.000000 -0.000000
vn 0.000000 -1.000000 0.000000
vn 0.000000 -0.000000 0.000000
vn 0.000000 -1.000000 0.000000
vn -0.587785 0.000000 -0.809017
vn -0.587785 0.000000 -0.809017
vn 0.000000 1.000000 0.000000
vn 0.000000 1.000000 0.000000
vn 0.000000 0.000000 0.000000
vn 0.000000 0.000000 1.000000
vn 0.000000 0.000000 1.000000
vn 0.000000 -1.000000 0.000000
vn 0.000000 -1.000000 0.000000
vn 0.000000 -0.000000 0.000000
vn 0.000000 1.000000 -0.000000
vn 0.000000 0.000000 -0.000000
vn 0.000000 1.000000 -0.000000
vn 0.000000 -1.000000 -0.000000
vn 0.000000 -1.000000 -0.000000
vn -0.809017 0.000000 -0.587785
vn -0.809017 0.000000 -0.587785
vn 0.000000 1.000000 0.000000
vn 0.000000 1.000000 0.000000
vn -0.309017 0.000000 0.951057
vn -0.309017 0.000000 0.951057
vn 0.000000 -1.000000 0.000000
vn 0.000000 -1.000000 0.000000
vn 0.000000 1.000000 0.000000
vn 0.000000 1.000000 0.000000
vn 0.000000 -1.000000 -0.000000
vn 0.000000 -0.000000 -0.000000
vn 0.000000 -0.000000 -0.000000
vn 0.000000 -1.000000 -0.000000
vn -0.951057 0.000000 -0.309017
vn -0.951057 0.000000 -0.309017
vn 0.000000 1.000000 0.000000
vn 0.000000 1.000000 0.000000
vn 0.000000 0.000000 0.000000
vn 0.000000 0.000000 0.000000
vn -0.587785 0.000000 0.809017
vn -0.587785 0.000000 0.809017
vn 0.000000 -1.000000 -0.000000
vn 0.000000 -1.000000 0.000000
vn 0.000000 -1.000000 0.000000
vn 0.000000 1.000000 -0.000000
vn 0.000000 1.000000 0.000000
vn 0.000000 1.000000 -0.000000
vn 0.000000 -1.000000 -0.000000
vn 0.000000 -0.000000 -0.000000
vn 0.000000 -1.000000 -0.000000
vn -1.000000 0.000000 0.000000
vn -1.000000 0.000000 0.000000
vn 0.000000 1.000000 0.000000
vn 0.000000 1.000000 0.000000
vn 0.000000 0.000000 0.000000
vn -0.809017 0.000000 0.587785
vn -0.809017 0.000000 0.587785
vn 0.000000 -1.000000 -0.000000
vn 0.000000 -1.000000 -0.000000
vn 0.000000 1.000000 -0.000000
vn 0.000000 1.000000 -0.000000
vn 0.000000 -1.000000 0.000000
vn 0.000000 -1.000000 0.000000
vn -0.951057 0.000000 0.309017
vn -0.951057 0.000000 0.309017
vn 0.000000 1.000000 0.000000
vn 0.000000 1.000000 0.000000
vn 0.000000 -1.000000 0.000000
vn 0.000000 -1.000000 0.000000
vn 0.000000 -0.000000 0.000000
vn 0.000000 -0.000000 0.000000
vn 0.000000 1.000000 -0.000000
vn 0.000000 0.000000 -0.000000
vn 0.000000 0.000000 -0.000000
vn 0.000000 1.000000 -0.000000
vn 0.000000 -1.000000 0.000000
vn 0.000000 -1.000000 0.000000
vn 0.000000 1.000000 -0.000000
vn 0.000000 1.000000 -0.000000
vn 0.000000 -0.000000 0.000000
vn 0.000000 0.000000 -0.000000
vn -0.809017 0.000000 0.587785
vn -0.891007 0.000000 0.453991
vn -0.951057 -0.000000 0.309016
vn -0.951057 -0.000000 0.309016
vn -0.891007 0.000000 0.453991
vn -0.809017 0.000000 0.587785
vn -0.707107 0.000000 0.707107
vn -0.707107 0.000000 0.707107
vn -0.987689 -0.000000 0.156433
vn -1.000000 -0.000000 -0.000001
vn -1.000000 -0.000000 -0.000001
vn -0.987689 -0.000000 0.156433
vn -0.156435 0.000000 0.987688
vn -0.000000 0.000000 0.000000
vn -0.000000 0.000000 0.000000
vn -0.000000 0.000000 0.000000
vn -0.000000 0.000000 0.000000
vn -0.156435 0.000000 0.987688
vn -0.987688 0.000000 -0.156435
vn -0.951057 0.000000 -0.309017
vn -0.951057 0.000000 -0.309017
vn -0.987688 0.000000 -0.156435
vn 0.000000 0.000000 1.000000
vn 0.000000 0.000000 1.000000
vn -0.000000 0.000000 -0.000000
vn -0.707107 0.000000 -0.707107
vn -0.707107 0.000000 -0.707107
vn -0.000000 0.000000 -0.000000
vn 0.156435 0.000000 0.987688
vn 0.156435 0.000000 0.987688
vn -0.707107 0.000000 -0.707107
vn -0.707107 0.000000 -0.707107
vn 0.707107 0.000000 0.707107
vn 0.000000 0.000000 0.000000
vn 0.000000 0.000000 0.000000
vn 0.000000 0.000000 0.000000
vn 0.000000 0.000000 0.000000
vn 0.707107 0.000000 0.707107
vn -0.000000 0.000000 -0.000000
vn -0.453991 0.000000 -0.891007
vn -0.453991 0.000000 -0.891007
vn -0.000000 0.000000 -0.000000
vn 0.707107 0.000000 0.707107
vn 0.707107 0.000000 0.707107
vn -0.000000 0.000000 -0.000000
vn -0.000000 0.000000 -1.000000
vn -0.000000 0.000000 -1.000000
vn -0.000000 0.000000 -0.000000
vn 0.891007 0.000000 0.453990
vn 0.000000 0.000000 0.000000
vn 0.000000 0.000000 0.000000
vn 0.891007 0.000000 0.453990
vn 0.309017 0.000000 -0.951057
vn 0.309017 0.000000 -0.951057
vn 1.000000 0.000000 0.000000
vn 0.000000 0.000000 0.000000
vn 0.000000 0.000000 0.000000
vn 1.000000 0.000000 0.000000
vn 0.453991 0.000000 -0.891006
vn 0.000000 0.000000 -0.000000
vn 0.707107 0.000000 -0.707107
vn 0.707107 0.000000 -0.707107
vn 0.000000 0.000000 -0.000000
vn 0.453991 0.000000 -0.891006
vn 0.891006 0.000000 -0.453991
vn 0.000000 0.000000 -0.000000
vn 0.000000 0.000000 -0.000000
vn 0.891006 0.000000 -0.453991
vn 0.707107 0.000000 -0.707107
vn 0.707107 0.000000 -0.707107
vn 0.000000 0.000000 -0.000000
vn 0.000000 0.000000 -0.000000
s 1
g pCylinder3
usemtl initialShadingGroup
f 1/1/1 2/2/2 3/3/3 4/4/4
f 5/5/5 1/1/1 4/4/4 6/6/6
s 2
f 2/7/7 1/8/8 7/9/9 8/10/10 9/11/11
s 1
f 2/2/2 10/12/12 11/13/13 3/3/3
s 3
f 4/14/14 3/15/15 12/16/16 13/17/17 14/18/18
s 1
f 15/19/19 5/5/5 6/6/6 16/20/20
s 2
f 7/9/9 1/8/8 5/21/21 17/22/22
s 3
f 18/23/23 6/24/24 4/14/14 14/18/18
s 2
f 10/25/25 2/7/7 9/11/11 19/26/26 20/27/27 21/28/28
s 1
f 10/12/12 22/29/29 23/30/30 11/13/13
s 3
f 3/15/15 11/31/31 24/32/32 25/33/33 26/34/34 12/16/16
s 1
f 27/35/35 15/19/19 16/20/20 28/36/36
s 2
f 17/22/22 5/21/21 15/37/37 29/38/38
s 3
f 30/39/39 16/40/40 6/24/24 18/23/23
s 2
f 31/41/41 22/42/42 10/25/25 21/28/28
s 1
f 22/29/29 32/43/43 33/226/44 23/30/30
s 3
f 24/32/32 11/31/31 23/45/45 34/46/46
s 1
f 35/47/47 27/35/35 28/36/36 36/48/48
s 2
f 15/37/37 27/49/49 37/50/50 38/51/51 29/38/38
s 3
f 28/52/52 16/40/40 30/39/39 39/53/53 40/54/54
s 2
f 32/55/55 22/42/42 31/41/41 41/56/56 42/57/57
s 1
f 32/225/43 43/58/58 44/59/59 33/44/44
s 3
f 23/45/45 33/60/60 45/61/61 46/62/62 34/46/46
s 1
f 47/63/63 35/47/47 36/48/48 48/64/64
s 2
f 27/49/49 35/65/65 49/66/66 50/67/67 51/68/68 37/50/50
s 3
f 36/69/69 28/52/52 40/54/54 52/70/70 53/71/71 54/72/72
s 2
f 43/73/73 32/55/55 42/57/57 55/74/74 56/75/75
s 1
f 43/58/58 57/76/76 58/77/77 44/59/59
s 3
f 33/60/60 44/78/78 59/79/79 60/80/80 45/61/61
s 1
f 61/81/81 47/63/63 48/64/64 62/82/82
s 2
f 35/65/65 47/83/83 63/84/84 64/85/85 49/66/66
s 3
f 48/86/86 36/69/69 54/72/72 65/87/87 66/88/88
s 2
f 67/89/89 57/90/90 43/73/73 56/75/75
s 1
f 57/76/76 68/91/91 69/92/92 58/77/77
s 3
f 59/79/79 44/78/78 58/93/93 70/94/94
s 1
f 71/95/95 61/81/81 62/82/82 72/96/96
s 2
f 63/84/84 47/83/83 61/97/97 73/98/98
s 3
f 74/99/99 62/100/100 48/86/86 66/88/88
s 2
f 68/101/101 57/90/90 67/89/89 75/102/102 76/103/103 77/104/104
s 1
f 68/91/91 78/105/105 79/106/106 69/92/92
s 3
f 58/93/93 69/107/107 80/108/108 81/109/109 82/110/110 70/94/94
s 1
f 83/111/111 71/95/95 72/96/96 84/112/112
s 2
f 61/97/97 71/113/113 85/114/114 86/115/115 73/98/98
s 3
f 72/116/116 62/100/100 74/99/99 87/117/117 88/118/118
s 2
f 78/119/119 68/101/101 77/104/104 89/120/120 90/121/121
s 1
f 78/105/105 91/122/122 92/123/123 79/106/106
s 3
f 69/107/107 79/124/124 93/125/125 94/126/126 80/108/108
s 1
f 95/127/127 83/111/111 84/112/112 96/128/128
s 2
f 85/114/114 71/113/113 83/129/129 97/130/130
s 3
f 98/131/131 84/132/132 72/116/116 88/118/118
s 2
f 99/133/133 91/134/134 78/119/119 90/121/121
s 1
f 91/122/122 100/135/135 101/136/136 92/123/123
s 3
f 93/125/125 79/124/124 92/137/137 102/138/138
s 1
f 100/135/135 95/127/127 96/128/128 101/136/136
s 2
f 83/129/129 95/139/139 103/140/140 104/141/141 105/142/142 97/130/130
s 3
f 96/143/143 84/132/132 98/131/131 106/144/144 107/145/145 108/146/146
s 2
f 109/147/147 100/148/148 91/134/134 99/133/133
s 3
f 102/138/138 92/137/137 101/149/149 110/150/150
s 2
f 95/139/139 100/148/148 109/147/147 111/151/151 103/140/140
s 3
f 101/149/149 96/143/143 108/146/146 112/152/152 110/150/150
s 4
f 19/153/153 9/154/154 8/155/155 13/156/156 12/157/157 26/158/158
f 20/159/159 19/153/153 26/158/158 25/160/160
f 8/155/155 7/161/161 17/162/162 18/163/163 14/164/164 13/156/156
f 41/165/165 31/166/166 21/167/167 20/159/159 25/160/160 24/168/168 34/169/169 46/170/170
f 17/162/162 29/171/171 38/172/172 39/173/173 30/174/174 18/163/163
f 42/175/175 41/165/165 46/170/170 45/176/176
f 38/172/172 37/177/177 51/178/178 52/179/179 40/180/180 39/173/173
f 55/181/181 42/175/175 45/176/176 60/182/182
f 51/178/178 50/183/183 53/184/184 52/179/179
f 75/185/185 67/186/186 56/187/187 55/181/181 60/182/182 59/188/188 70/189/189 82/190/190
f 50/183/183 49/191/191 64/192/192 65/193/193 54/194/194 53/184/184
f 76/195/195 75/185/185 82/190/190 81/196/196
f 64/192/192 63/197/197 73/227/198 74/199/199 66/200/200 65/193/193
f 89/201/201 77/202/202 76/195/195 81/196/196 80/203/203 94/204/204
f 73/198/198 86/205/205 87/206/206 74/228/199
f 99/207/207 90/208/208 89/201/201 94/204/204 93/209/209 102/210/210
f 86/205/205 85/211/211 97/212/212 105/213/213 106/214/214 98/215/215 88/216/216 87/206/206
f 111/217/217 109/218/218 99/207/207 102/210/210 110/219/219 112/220/220
f 105/213/213 104/221/221 107/222/222 106/214/214
f 104/221/221 103/223/223 111/217/217 112/220/220 108/224/224 107/222/222
